<svg width="17" height="20" viewBox="0 0 17 20" fill="none" xmlns="http://www.w3.org/2000/svg">
<path id="Vector" d="M11.7413 8.40385V4.36538C11.7413 3.47283 11.413 2.61683 10.8287 1.9857C10.2443 1.35457 9.45176 1 8.62537 1C7.79897 1 7.00642 1.35457 6.42207 1.9857C5.83772 2.61683 5.50944 3.47283 5.50944 4.36538V8.40385M14.9453 6.61526L15.9947 17.3845C16.0529 17.9813 15.6208 18.5 15.065 18.5H2.18578C2.05467 18.5002 1.92499 18.4705 1.80518 18.413C1.68536 18.3555 1.57809 18.2714 1.49032 18.1662C1.40256 18.061 1.33627 17.937 1.29575 17.8024C1.25523 17.6677 1.2414 17.5253 1.25516 17.3845L2.30543 6.61526C2.32966 6.36717 2.43807 6.13755 2.60975 5.97068C2.78144 5.80381 3.00425 5.71149 3.23523 5.71154H14.0155C14.4941 5.71154 14.8954 6.10192 14.9453 6.61526ZM5.82103 8.40385C5.82103 8.4931 5.7882 8.5787 5.72977 8.64182C5.67133 8.70493 5.59208 8.74038 5.50944 8.74038C5.4268 8.74038 5.34754 8.70493 5.28911 8.64182C5.23067 8.5787 5.19784 8.4931 5.19784 8.40385C5.19784 8.31459 5.23067 8.22899 5.28911 8.16588C5.34754 8.10276 5.4268 8.06731 5.50944 8.06731C5.59208 8.06731 5.67133 8.10276 5.72977 8.16588C5.7882 8.22899 5.82103 8.31459 5.82103 8.40385ZM12.0529 8.40385C12.0529 8.4931 12.0201 8.5787 11.9616 8.64182C11.9032 8.70493 11.8239 8.74038 11.7413 8.74038C11.6587 8.74038 11.5794 8.70493 11.521 8.64182C11.4625 8.5787 11.4297 8.4931 11.4297 8.40385C11.4297 8.31459 11.4625 8.22899 11.521 8.16588C11.5794 8.10276 11.6587 8.06731 11.7413 8.06731C11.8239 8.06731 11.9032 8.10276 11.9616 8.16588C12.0201 8.22899 12.0529 8.31459 12.0529 8.40385Z" stroke="black" stroke-width="1.5" stroke-linecap="round" stroke-linejoin="round"/>
</svg>
