<svg width="43" height="43" viewBox="0 0 43 43" fill="none" xmlns="http://www.w3.org/2000/svg">
<rect width="43" height="43" rx="21.5" fill="url(#paint0_linear_3_652)"/>
<path d="M11.75 12.5H13.136C13.646 12.5 14.091 12.843 14.223 13.335L14.606 14.772M14.606 14.772C20.1766 14.6159 25.7419 15.2352 31.142 16.612C30.318 19.066 29.339 21.45 28.218 23.75H17M14.606 14.772L17 23.75M17 23.75C16.2044 23.75 15.4413 24.0661 14.8787 24.6287C14.3161 25.1913 14 25.9544 14 26.75H29.75M15.5 29.75C15.5 29.9489 15.421 30.1397 15.2803 30.2803C15.1397 30.421 14.9489 30.5 14.75 30.5C14.5511 30.5 14.3603 30.421 14.2197 30.2803C14.079 30.1397 14 29.9489 14 29.75C14 29.5511 14.079 29.3603 14.2197 29.2197C14.3603 29.079 14.5511 29 14.75 29C14.9489 29 15.1397 29.079 15.2803 29.2197C15.421 29.3603 15.5 29.5511 15.5 29.75ZM28.25 29.75C28.25 29.9489 28.171 30.1397 28.0303 30.2803C27.8897 30.421 27.6989 30.5 27.5 30.5C27.3011 30.5 27.1103 30.421 26.9697 30.2803C26.829 30.1397 26.75 29.9489 26.75 29.75C26.75 29.5511 26.829 29.3603 26.9697 29.2197C27.1103 29.079 27.3011 29 27.5 29C27.6989 29 27.8897 29.079 28.0303 29.2197C28.171 29.3603 28.25 29.5511 28.25 29.75Z" stroke="white" stroke-width="1.5" stroke-linecap="round" stroke-linejoin="round"/>
<defs>
<linearGradient id="paint0_linear_3_652" x1="36.2105" y1="-34.1196" x2="167.225" y2="3.65784" gradientUnits="userSpaceOnUse">
<stop stop-color="#03563E"/>
<stop offset="1" stop-color="white" stop-opacity="0"/>
</linearGradient>
</defs>
</svg>
