<svg width="81" height="23" viewBox="0 0 81 23" fill="none" xmlns="http://www.w3.org/2000/svg">
<path d="M9.744 22.006C8.592 22.006 7.48 21.862 6.408 21.574C5.336 21.302 4.376 20.886 3.528 20.326C2.68 19.766 2 19.062 1.488 18.214C0.992 17.366 0.744 16.366 0.744 15.214C0.744 14.366 0.896 13.462 1.2 12.502C1.376 11.958 1.624 11.494 1.944 11.11C2.28 10.726 2.624 10.43 2.976 10.222C3.328 10.014 3.608 9.91 3.816 9.91C4.088 9.91 4.2 10.038 4.152 10.294C4.056 10.406 3.888 10.542 3.648 10.702C3.424 10.846 3.176 11.038 2.904 11.278C2.648 11.518 2.4 11.83 2.16 12.214C1.936 12.582 1.776 13.054 1.68 13.63C1.648 13.838 1.616 14.046 1.584 14.254C1.568 14.462 1.56 14.662 1.56 14.854C1.56 15.894 1.784 16.814 2.232 17.614C2.68 18.414 3.264 19.078 3.984 19.606C4.72 20.134 5.52 20.526 6.384 20.782C7.264 21.054 8.128 21.182 8.976 21.166C10.272 21.134 11.424 20.95 12.432 20.614C13.44 20.294 14.336 19.862 15.12 19.318C15.904 18.774 16.592 18.174 17.184 17.518C17.68 16.974 18.176 16.31 18.672 15.526C19.168 14.742 19.648 13.902 20.112 13.006C20.592 12.094 21.04 11.19 21.456 10.294C21.888 9.398 22.288 8.55 22.656 7.75C23.024 6.95 23.344 6.27 23.616 5.71C23.888 5.134 24.112 4.734 24.288 4.51C23.024 4.126 21.808 3.83 20.64 3.622C19.488 3.398 18.256 3.254 16.944 3.19C15.744 3.126 14.672 3.262 13.728 3.598C12.8 3.934 12.008 4.39 11.352 4.966C10.712 5.526 10.216 6.142 9.864 6.814C9.528 7.486 9.36 8.134 9.36 8.758C9.36 9.302 9.496 9.79 9.768 10.222C10.056 10.638 10.488 10.942 11.064 11.134C11.448 11.246 11.824 11.302 12.192 11.302C12.768 11.302 13.272 11.182 13.704 10.942C14.136 10.702 14.496 10.414 14.784 10.078C15.088 9.726 15.312 9.398 15.456 9.094C15.616 8.774 15.696 8.542 15.696 8.398V8.374C15.776 8.278 15.856 8.23 15.936 8.23C16.096 8.23 16.176 8.342 16.176 8.566C16.096 9.254 15.848 9.854 15.432 10.366C15.032 10.878 14.544 11.27 13.968 11.542C13.392 11.814 12.784 11.95 12.144 11.95C11.696 11.95 11.264 11.878 10.848 11.734C9.968 11.414 9.304 10.902 8.856 10.198C8.408 9.478 8.184 8.702 8.184 7.87C8.184 7.166 8.336 6.47 8.64 5.782C8.944 5.078 9.408 4.438 10.032 3.862C10.656 3.27 11.432 2.798 12.36 2.446C13.288 2.094 14.376 1.918 15.624 1.918C15.832 1.918 16 1.918 16.128 1.918C16.256 1.918 16.472 1.934 16.776 1.966C17.528 2.03 18.288 2.158 19.056 2.35C19.824 2.526 20.56 2.726 21.264 2.95C21.968 3.174 22.616 3.39 23.208 3.598C23.8 3.806 24.288 3.958 24.672 4.054C24.72 3.99 24.856 3.878 25.08 3.718C25.32 3.558 25.56 3.39 25.8 3.214C26.056 3.038 26.256 2.886 26.4 2.758C26.544 2.63 26.552 2.566 26.424 2.566H26.4C26.448 2.55 26.512 2.542 26.592 2.542C26.752 2.542 26.872 2.598 26.952 2.71C27.032 2.806 27.072 2.91 27.072 3.022C27.072 3.23 26.976 3.334 26.784 3.334C26.752 3.334 26.688 3.318 26.592 3.286C26.528 3.222 26.408 3.254 26.232 3.382C26.072 3.51 25.904 3.662 25.728 3.838C25.568 3.998 25.44 4.134 25.344 4.246C25.696 4.358 26.136 4.494 26.664 4.654C27.208 4.798 27.784 4.95 28.392 5.11C29.016 5.254 29.624 5.374 30.216 5.47C30.808 5.566 31.336 5.614 31.8 5.614C32.248 5.614 32.6 5.558 32.856 5.446C33.128 5.334 33.264 5.15 33.264 4.894C33.264 4.798 33.28 4.718 33.312 4.654C33.36 4.574 33.44 4.534 33.552 4.534C33.632 4.534 33.688 4.606 33.72 4.75C33.752 4.878 33.768 4.982 33.768 5.062C33.768 5.446 33.56 5.758 33.144 5.998C32.744 6.238 32.24 6.358 31.632 6.358C31.536 6.358 31.44 6.358 31.344 6.358C31.248 6.342 31.144 6.326 31.032 6.31C29.24 6.086 27.84 5.798 26.832 5.446C25.84 5.094 25.216 4.862 24.96 4.75C24.24 5.902 23.648 7.086 23.184 8.302C22.72 9.518 22.28 10.734 21.864 11.95C21.464 13.166 20.992 14.342 20.448 15.478C19.92 16.614 19.216 17.686 18.336 18.694C17.696 19.414 16.912 20.022 15.984 20.518C15.072 21.014 14.08 21.382 13.008 21.622C11.936 21.878 10.848 22.006 9.744 22.006ZM28.5945 10.006C28.3545 10.006 28.1545 9.926 27.9945 9.766C27.8505 9.59 27.7785 9.382 27.7785 9.142C27.7785 8.838 27.8985 8.574 28.1385 8.35C28.3785 8.126 28.6425 8.014 28.9305 8.014C29.1865 8.014 29.3945 8.094 29.5545 8.254C29.7145 8.414 29.7945 8.606 29.7945 8.83C29.7945 9.134 29.6745 9.406 29.4345 9.646C29.1945 9.886 28.9145 10.006 28.5945 10.006ZM26.6505 19.75C26.0585 19.75 25.6425 19.582 25.4025 19.246C25.1625 18.894 25.0425 18.494 25.0425 18.046C25.0425 17.806 25.0665 17.566 25.1145 17.326C25.1785 17.07 25.2505 16.838 25.3305 16.63L26.9385 12.526C26.9865 12.398 27.0105 12.286 27.0105 12.19C27.0105 12.03 26.9705 11.894 26.8905 11.782C26.8105 11.654 26.7545 11.566 26.7225 11.518L28.0425 11.47C28.2825 11.454 28.4505 11.486 28.5465 11.566C28.6585 11.63 28.7145 11.71 28.7145 11.806C28.7145 11.902 28.6585 12.078 28.5465 12.334L26.5545 17.014C26.5545 17.014 26.5065 17.118 26.4105 17.326C26.3305 17.518 26.2825 17.646 26.2665 17.71C26.2185 17.95 26.1865 18.102 26.1705 18.166C26.1545 18.23 26.1465 18.27 26.1465 18.286C26.1465 18.302 26.1465 18.366 26.1465 18.478C26.1465 18.686 26.1945 18.862 26.2905 19.006C26.4025 19.15 26.5865 19.222 26.8425 19.222C27.0025 19.222 27.1865 19.174 27.3945 19.078C27.6025 18.982 27.7545 18.886 27.8505 18.79C28.2505 18.374 28.6425 17.83 29.0265 17.158C29.4265 16.47 29.7945 15.79 30.1305 15.118C30.1945 14.958 30.2745 14.878 30.3705 14.878C30.4505 14.878 30.4905 14.934 30.4905 15.046C30.4905 15.11 30.4665 15.206 30.4185 15.334C30.2585 15.67 30.0585 16.086 29.8185 16.582C29.5785 17.078 29.2905 17.574 28.9545 18.07C28.6345 18.55 28.2825 18.95 27.8985 19.27C27.5145 19.59 27.0985 19.75 26.6505 19.75ZM32.9813 19.774C32.6773 19.774 32.3733 19.654 32.0693 19.414C31.7653 19.158 31.6133 18.75 31.6133 18.19C31.6133 17.758 31.7173 17.262 31.9253 16.702C32.1173 16.158 32.3733 15.63 32.6933 15.118C33.0293 14.606 33.2693 14.19 33.4133 13.87C33.4613 13.742 33.4853 13.63 33.4853 13.534C33.4853 13.246 33.3013 13.038 32.9333 12.91C32.5813 12.782 32.1173 12.71 31.5413 12.694L31.2533 13.486C31.0773 13.998 30.8293 14.598 30.5093 15.286C30.2053 15.974 29.8613 16.638 29.4773 17.278C29.1093 17.918 28.7252 18.43 28.3252 18.814C28.2932 18.846 28.2532 18.862 28.2052 18.862C28.1412 18.862 28.1012 18.822 28.0852 18.742C28.0532 18.662 28.0852 18.566 28.1812 18.454C28.8053 17.622 29.3653 16.702 29.8613 15.694C30.3573 14.67 30.7733 13.63 31.1093 12.574C31.4613 11.518 31.7173 10.542 31.8773 9.646C31.9253 9.39 32.0132 9.206 32.1413 9.094C32.2693 8.966 32.4053 8.902 32.5493 8.902C32.7573 8.902 32.9493 9.006 33.1253 9.214C33.3013 9.406 33.3893 9.686 33.3893 10.054C33.3893 10.118 33.3813 10.19 33.3653 10.27C33.3653 10.35 33.3573 10.43 33.3413 10.51C33.2773 10.846 33.0853 11.166 32.7653 11.47C32.4613 11.758 32.2133 11.974 32.0213 12.118C32.1813 12.134 32.3493 12.15 32.5253 12.166C32.7013 12.166 32.8933 12.166 33.1013 12.166C33.8533 12.166 34.5973 12.118 35.3333 12.022C35.3653 12.118 35.3813 12.19 35.3813 12.238C35.3813 12.446 35.3173 12.71 35.1893 13.03C35.0773 13.35 34.9573 13.638 34.8293 13.894C34.7653 14.038 34.6373 14.302 34.4453 14.686C34.2533 15.054 34.0453 15.478 33.8213 15.958C33.5973 16.422 33.4053 16.886 33.2453 17.35C33.1013 17.798 33.0293 18.182 33.0293 18.502C33.0293 18.918 33.1893 19.126 33.5093 19.126C33.7493 19.126 34.0133 18.974 34.3013 18.67C34.5893 18.35 34.8693 17.966 35.1413 17.518C35.4293 17.054 35.6853 16.606 35.9093 16.174C36.1493 15.726 36.3333 15.374 36.4613 15.118C36.5253 14.958 36.6133 14.878 36.7253 14.878C36.7893 14.878 36.8213 14.934 36.8213 15.046C36.8213 15.11 36.7973 15.206 36.7493 15.334C36.5733 15.702 36.3653 16.118 36.1253 16.582C35.8853 17.046 35.6133 17.502 35.3093 17.95C35.0213 18.398 34.7013 18.79 34.3493 19.126C34.0133 19.446 33.6453 19.654 33.2453 19.75C33.1973 19.766 33.1093 19.774 32.9813 19.774ZM38.0871 19.846C37.4951 19.846 36.9591 19.654 36.4791 19.27C36.0151 18.886 35.7831 18.302 35.7831 17.518C35.7831 16.798 35.9591 16.03 36.3111 15.214C36.6631 14.382 37.1111 13.654 37.6551 13.03C38.1191 12.486 38.6391 12.038 39.2151 11.686C39.7911 11.334 40.3351 11.158 40.8471 11.158C41.1991 11.158 41.5031 11.254 41.7591 11.446C42.0311 11.654 42.1671 11.95 42.1671 12.334C42.1671 12.734 42.0151 13.174 41.7111 13.654C41.4071 14.134 40.9751 14.582 40.4151 14.998C40.1751 15.174 39.8711 15.342 39.5031 15.502C39.1351 15.662 38.7671 15.798 38.3991 15.91C38.0311 16.006 37.7271 16.054 37.4871 16.054C37.4071 16.246 37.3271 16.502 37.2471 16.822C37.1831 17.142 37.1511 17.47 37.1511 17.806C37.1511 18.206 37.2311 18.566 37.3911 18.886C37.5511 19.206 37.8471 19.366 38.2791 19.366C38.8071 19.366 39.2871 19.214 39.7191 18.91C40.1511 18.606 40.5351 18.23 40.8711 17.782C41.2071 17.318 41.4871 16.854 41.7111 16.39C41.9511 15.926 42.1431 15.534 42.2871 15.214C42.3831 14.99 42.5111 14.878 42.6711 14.878C42.7511 14.878 42.7911 14.918 42.7911 14.998C42.7911 15.062 42.7671 15.142 42.7191 15.238C42.4951 15.718 42.2551 16.23 41.9991 16.774C41.7431 17.302 41.4391 17.806 41.0871 18.286C40.7351 18.75 40.3111 19.126 39.8151 19.414C39.3351 19.702 38.7591 19.846 38.0871 19.846ZM37.6551 15.622C37.8791 15.622 38.2551 15.542 38.7831 15.382C39.3111 15.206 39.7911 14.934 40.2231 14.566C40.6391 14.198 40.9591 13.798 41.1831 13.366C41.4071 12.918 41.5191 12.542 41.5191 12.238C41.5191 11.886 41.3911 11.71 41.1351 11.71C40.9431 11.71 40.6791 11.838 40.3431 12.094C40.0071 12.35 39.5911 12.782 39.0951 13.39C38.7911 13.774 38.5031 14.19 38.2311 14.638C37.9591 15.086 37.7671 15.414 37.6551 15.622ZM42.8882 19.846C42.1042 19.846 41.5442 19.646 41.2082 19.246C40.8882 18.83 40.7282 18.398 40.7282 17.95C40.7282 17.582 40.8162 17.246 40.9922 16.942C41.1842 16.638 41.4082 16.478 41.6642 16.462C41.9842 15.838 42.3282 15.158 42.6962 14.422C43.0802 13.686 43.4322 12.974 43.7522 12.286C43.9762 11.822 44.2562 11.374 44.5922 10.942C44.9442 10.51 45.3282 10.262 45.7442 10.198H45.9842C46.1122 10.198 46.2242 10.206 46.3202 10.222C46.4322 10.238 46.5442 10.27 46.6562 10.318C46.8322 10.398 46.9202 10.518 46.9202 10.678C46.9202 10.774 46.8642 10.822 46.7522 10.822C46.7042 10.822 46.6402 10.798 46.5602 10.75C46.3682 10.67 46.2002 10.63 46.0562 10.63C45.9602 10.63 45.8722 10.654 45.7922 10.702C45.4882 10.862 45.2722 11.086 45.1442 11.374C45.0322 11.662 44.9762 11.966 44.9762 12.286C44.9762 12.542 45.0002 12.806 45.0482 13.078C45.1122 13.334 45.1842 13.566 45.2642 13.774C45.4402 14.222 45.6242 14.662 45.8162 15.094C46.0242 15.526 46.1282 15.99 46.1282 16.486C46.1282 16.966 45.9682 17.478 45.6482 18.022C45.3282 18.55 44.9202 18.974 44.4242 19.294L44.5922 19.318C44.6722 19.334 44.7282 19.342 44.7602 19.342C44.7922 19.342 44.8162 19.342 44.8322 19.342C45.2002 19.342 45.5442 19.238 45.8642 19.03C46.2002 18.806 46.4962 18.534 46.7522 18.214C47.0082 17.894 47.2962 17.446 47.6162 16.87C47.9522 16.294 48.2722 15.686 48.5762 15.046C48.6242 14.966 48.6802 14.926 48.7442 14.926C48.8242 14.926 48.8802 14.958 48.9122 15.022C48.9602 15.07 48.9682 15.134 48.9362 15.214C48.7282 15.662 48.4882 16.15 48.2162 16.678C47.9602 17.19 47.6642 17.686 47.3282 18.166C46.9922 18.63 46.6002 19.014 46.1522 19.318C45.7202 19.606 45.2322 19.75 44.6882 19.75C44.5602 19.75 44.4242 19.742 44.2802 19.726C44.1362 19.71 43.9922 19.678 43.8482 19.63C43.6882 19.694 43.5202 19.742 43.3442 19.774C43.1842 19.822 43.0322 19.846 42.8882 19.846ZM43.6082 19.126C43.8802 18.902 44.1202 18.574 44.3282 18.142C44.5522 17.71 44.6642 17.142 44.6642 16.438C44.6642 15.814 44.6002 15.15 44.4722 14.446C44.3442 13.742 44.2802 13.118 44.2802 12.574C44.2802 12.462 44.2802 12.366 44.2802 12.286C44.2962 12.19 44.3122 12.102 44.3282 12.022C44.1202 12.454 43.8802 12.958 43.6082 13.534C43.3362 14.094 43.0642 14.638 42.7922 15.166C42.5202 15.694 42.2882 16.142 42.0962 16.51C42.0962 16.51 42.1362 16.518 42.2162 16.534C42.3122 16.534 42.4002 16.59 42.4802 16.702C42.5602 16.798 42.5922 16.998 42.5762 17.302C42.5602 17.702 42.6482 18.078 42.8402 18.43C43.0482 18.766 43.3042 18.998 43.6082 19.126ZM42.6962 19.462C42.7922 19.462 42.8802 19.454 42.9602 19.438C43.0402 19.406 43.1122 19.382 43.1762 19.366C42.9362 19.19 42.7202 18.958 42.5282 18.67C42.3522 18.366 42.2482 17.982 42.2162 17.518C41.9282 17.822 41.7842 18.15 41.7842 18.502C41.7842 18.758 41.8642 18.982 42.0242 19.174C42.1842 19.366 42.4082 19.462 42.6962 19.462ZM62.6066 22.222C62.0146 22.222 61.4066 22.158 60.7826 22.03C60.1746 21.902 59.5666 21.71 58.9586 21.454C57.9666 21.022 57.1666 20.454 56.5586 19.75C55.9506 19.062 55.5106 18.278 55.2386 17.398C54.9666 16.518 54.8306 15.598 54.8306 14.638C54.8306 13.63 54.9506 12.622 55.1906 11.614C55.4466 10.606 55.7986 9.646 56.2466 8.734C56.6946 7.806 57.1986 6.982 57.7586 6.262C57.6466 5.846 57.5506 5.366 57.4706 4.822C57.4066 4.278 57.3746 3.726 57.3746 3.166C57.3746 2.318 57.4706 1.51 57.6626 0.741999C57.7266 0.517999 57.8386 0.405999 57.9986 0.405999C58.1106 0.405999 58.1666 0.485999 58.1666 0.645998C58.1666 0.741999 58.1586 0.813999 58.1426 0.861999C58.1106 1.102 58.0786 1.35 58.0466 1.606C58.0306 1.862 58.0226 2.126 58.0226 2.398C58.0226 2.942 58.0546 3.478 58.1186 4.006C58.1826 4.534 58.2546 5.022 58.3346 5.47C59.5026 3.95 60.8386 2.822 62.3426 2.086C63.8626 1.334 65.4546 0.957999 67.1186 0.957999C67.5506 0.957999 67.9666 0.981999 68.3666 1.03C69.6466 1.174 70.6946 1.494 71.5106 1.99C72.3266 2.47 72.9266 3.062 73.3106 3.766C73.7106 4.47 73.9106 5.214 73.9106 5.998C73.9106 6.766 73.7346 7.526 73.3826 8.278C73.0306 9.03 72.5186 9.718 71.8466 10.342C71.1746 10.95 70.3506 11.446 69.3746 11.83C68.4146 12.198 67.3266 12.382 66.1106 12.382C65.8386 12.382 65.5666 12.374 65.2946 12.358C65.0226 12.342 64.7266 12.31 64.4066 12.262C63.1426 12.07 61.9906 11.662 60.9506 11.038C59.9106 10.414 59.0706 9.454 58.4306 8.158C58.3026 8.318 58.1266 8.646 57.9026 9.142C57.6786 9.622 57.4546 10.206 57.2306 10.894C57.0066 11.582 56.8146 12.334 56.6546 13.15C56.4946 13.95 56.4146 14.758 56.4146 15.574C56.4146 16.358 56.5186 17.118 56.7266 17.854C56.9346 18.574 57.2946 19.206 57.8066 19.75C58.3186 20.31 59.0146 20.726 59.8946 20.998C60.3266 21.126 60.7746 21.222 61.2386 21.286C61.7026 21.35 62.1746 21.382 62.6546 21.382C63.5826 21.382 64.5026 21.262 65.4146 21.022C66.3266 20.782 67.1746 20.43 67.9586 19.966C68.9986 19.358 69.7986 18.654 70.3586 17.854C70.9186 17.038 71.4386 16.126 71.9186 15.118C71.9826 14.958 72.0706 14.878 72.1826 14.878C72.2626 14.878 72.3026 14.934 72.3026 15.046C72.3026 15.126 72.2706 15.222 72.2066 15.334C71.8706 16.038 71.5346 16.686 71.1986 17.278C70.8626 17.854 70.4706 18.39 70.0226 18.886C69.5746 19.382 69.0066 19.87 68.3186 20.35C67.5346 20.894 66.6546 21.342 65.6786 21.694C64.7026 22.046 63.6786 22.222 62.6066 22.222ZM65.9666 11.758C67.0706 11.758 68.0466 11.598 68.8946 11.278C69.7426 10.942 70.4546 10.51 71.0306 9.982C71.6226 9.438 72.0626 8.838 72.3506 8.182C72.6546 7.526 72.8066 6.862 72.8066 6.19C72.8066 5.534 72.6546 4.91 72.3506 4.318C72.0466 3.726 71.5826 3.222 70.9586 2.806C70.3506 2.374 69.5666 2.094 68.6066 1.966C68.2546 1.918 67.9026 1.894 67.5506 1.894C66.4626 1.894 65.3906 2.126 64.3346 2.59C63.2946 3.038 62.3106 3.678 61.3826 4.51C60.4546 5.326 59.6306 6.286 58.9106 7.39C59.4706 8.782 60.2546 9.806 61.2626 10.462C62.2866 11.118 63.4546 11.526 64.7666 11.686C65.1826 11.734 65.5826 11.758 65.9666 11.758ZM73.0194 19.75C72.4114 19.75 71.9634 19.55 71.6754 19.15C71.3874 18.734 71.2434 18.23 71.2434 17.638C71.2434 16.918 71.4114 16.166 71.7474 15.382C72.0674 14.646 72.4754 13.974 72.9714 13.366C73.4674 12.758 74.0034 12.27 74.5794 11.902C75.1554 11.518 75.7154 11.326 76.2594 11.326C76.8674 11.326 77.3154 11.526 77.6034 11.926C77.8914 12.326 78.0354 12.83 78.0354 13.438C78.0354 14.174 77.8674 14.926 77.5314 15.694C77.3394 16.126 77.0674 16.606 76.7154 17.134C76.3634 17.646 75.9634 18.118 75.5154 18.55C75.6114 18.726 75.7474 18.878 75.9234 19.006C76.0994 19.118 76.3394 19.174 76.6434 19.174C77.0274 19.174 77.3874 19.014 77.7234 18.694C78.0754 18.374 78.3954 17.99 78.6834 17.542C78.9714 17.078 79.2274 16.614 79.4514 16.15C79.6754 15.686 79.8594 15.31 80.0034 15.022C80.0514 14.926 80.1314 14.878 80.2434 14.878C80.3074 14.878 80.3554 14.91 80.3874 14.974C80.4194 15.022 80.4114 15.102 80.3634 15.214C80.2674 15.454 80.1074 15.814 79.8834 16.294C79.6594 16.758 79.3874 17.246 79.0674 17.758C78.7474 18.254 78.3794 18.678 77.9634 19.03C77.5474 19.382 77.0834 19.558 76.5714 19.558C76.2194 19.558 75.9154 19.502 75.6594 19.39C75.4034 19.262 75.1954 19.11 75.0354 18.934C74.6994 19.19 74.3634 19.39 74.0274 19.534C73.6914 19.678 73.3554 19.75 73.0194 19.75ZM73.3794 19.222C73.8114 19.222 74.2754 19.014 74.7714 18.598C74.6434 18.406 74.5474 18.206 74.4834 17.998C74.4194 17.79 74.3874 17.598 74.3874 17.422C74.3874 17.134 74.4514 16.886 74.5794 16.678C74.7234 16.47 74.9394 16.366 75.2274 16.366C75.4354 16.366 75.6034 16.446 75.7314 16.606C75.8754 16.75 75.9474 16.918 75.9474 17.11C75.9474 17.158 75.9394 17.206 75.9234 17.254C75.9234 17.286 75.9154 17.326 75.8994 17.374C76.1714 17.006 76.4274 16.574 76.6674 16.078C77.1954 14.942 77.4594 14.006 77.4594 13.27C77.4594 12.902 77.3874 12.614 77.2434 12.406C77.0994 12.198 76.8834 12.094 76.5954 12.094C76.2594 12.094 75.8914 12.238 75.4914 12.526C75.1074 12.814 74.7314 13.198 74.3634 13.678C74.0114 14.158 73.6994 14.694 73.4274 15.286C73.1714 15.83 72.9634 16.358 72.8034 16.87C72.6594 17.366 72.5874 17.798 72.5874 18.166C72.5874 18.486 72.6514 18.742 72.7794 18.934C72.9074 19.126 73.1074 19.222 73.3794 19.222Z" fill="black"/>
</svg>
